<svg width="40" height="41" viewBox="0 0 40 41" fill="none" xmlns="http://www.w3.org/2000/svg">
<g clip-path="url(#clip0_109_4252)">
<path d="M32 0.964844H8C3.58172 0.964844 0 4.54657 0 8.96484V32.9648C0 37.3831 3.58172 40.9648 8 40.9648H32C36.4183 40.9648 40 37.3831 40 32.9648V8.96484C40 4.54657 36.4183 0.964844 32 0.964844Z" fill="#E2E5E6"/>
<mask id="mask0_109_4252" style="mask-type:luminance" maskUnits="userSpaceOnUse" x="10" y="10" width="20" height="21">
<path d="M10 10.9648H30V30.9648H10V10.9648Z" fill="white"/>
</mask>
<g mask="url(#mask0_109_4252)">
<path d="M19.6859 15.7829L15.5193 19.1162C15.4454 19.1753 15.3638 19.2205 15.2745 19.2519C15.1853 19.2832 15.0933 19.2988 14.9987 19.2988H11.6654V18.4655H12.4987V23.4655H11.6654V22.6322H14.9987C15.0933 22.6322 15.1853 22.6478 15.2745 22.6791C15.3638 22.7105 15.4454 22.7557 15.5193 22.8148L19.6859 26.1481L19.1654 26.7989H18.332V15.1322H19.1654L19.6859 15.7829ZM18.6448 14.4814C18.7187 14.4223 18.8002 14.3771 18.8895 14.3458C18.9788 14.3145 19.0708 14.2988 19.1654 14.2988C19.2201 14.2988 19.2743 14.3042 19.3279 14.3148C19.3816 14.3255 19.4337 14.3413 19.4843 14.3623C19.5348 14.3832 19.5828 14.4089 19.6283 14.4393C19.6738 14.4697 19.7159 14.5042 19.7546 14.5429C19.7933 14.5816 19.8279 14.6237 19.8583 14.6692C19.8887 14.7147 19.9143 14.7627 19.9353 14.8133C19.9562 14.8638 19.972 14.9159 19.9827 14.9696C19.9934 15.0233 19.9987 15.0774 19.9987 15.1322V26.7989C19.9987 26.8935 19.983 26.9854 19.9517 27.0747C19.9204 27.1639 19.8752 27.2455 19.8161 27.3194C19.7819 27.3621 19.7439 27.4011 19.702 27.4364C19.6602 27.4716 19.6153 27.5024 19.5673 27.5288C19.5194 27.5552 19.4694 27.5766 19.4172 27.5932C19.365 27.6097 19.3118 27.621 19.2574 27.6271C19.203 27.6331 19.1486 27.6338 19.094 27.6291C19.0395 27.6244 18.986 27.6145 18.9334 27.5993C18.8809 27.584 18.8303 27.5638 18.7817 27.5386C18.7332 27.5134 18.6875 27.4838 18.6448 27.4496L14.4781 24.1162L14.9987 23.4655V24.2988H11.6654C11.6106 24.2988 11.5565 24.2935 11.5028 24.2828C11.4491 24.2721 11.397 24.2563 11.3465 24.2354C11.2959 24.2145 11.2479 24.1888 11.2024 24.1584C11.1569 24.128 11.1148 24.0934 11.0761 24.0548C11.0374 24.0161 11.0029 23.974 10.9725 23.9285C10.9421 23.883 10.9164 23.8349 10.8955 23.7844C10.8745 23.7338 10.8587 23.6817 10.848 23.6281C10.8374 23.5744 10.832 23.5202 10.832 23.4655V18.4655C10.832 18.4108 10.8374 18.3566 10.848 18.3029C10.8587 18.2493 10.8745 18.1971 10.8955 18.1466C10.9164 18.096 10.9421 18.048 10.9725 18.0025C11.0029 17.957 11.0374 17.9149 11.0761 17.8762C11.1148 17.8375 11.1569 17.803 11.2024 17.7726C11.2479 17.7422 11.2959 17.7165 11.3465 17.6956C11.397 17.6747 11.4491 17.6588 11.5028 17.6482C11.5565 17.6375 11.6106 17.6322 11.6654 17.6322H14.9987V18.4655L14.4781 17.8148L18.6448 14.4814Z" fill="#4B5D63"/>
<path fill-rule="evenodd" clip-rule="evenodd" d="M22.3612 18.6041C22.0358 18.2787 22.0359 17.751 22.3614 17.4256C22.6868 17.1002 23.2145 17.1003 23.5399 17.4258C24.5158 18.4021 25.0038 19.5804 25.0038 20.9608C25.0038 22.3412 24.5158 23.5196 23.5399 24.4958C23.2145 24.8213 22.6868 24.8214 22.3614 24.496C22.0359 24.1706 22.0358 23.643 22.3612 23.3175C23.0118 22.6666 23.3371 21.8811 23.3371 20.9608C23.3371 20.0405 23.0118 19.255 22.3612 18.6041Z" fill="#4B5D63"/>
<path fill-rule="evenodd" clip-rule="evenodd" d="M25.3026 15.6627C24.9772 15.3372 24.9773 14.8096 25.3028 14.4842C25.6282 14.1588 26.1559 14.1589 26.4813 14.4844C28.2705 16.2742 29.1651 18.4345 29.1651 20.9652C29.1651 23.496 28.2705 25.6563 26.4813 27.4461C26.1559 27.7716 25.6282 27.7717 25.3028 27.4463C24.9773 27.1209 24.9772 26.5933 25.3026 26.2678C26.7665 24.8034 27.4985 23.0359 27.4985 20.9652C27.4985 18.8946 26.7665 17.1271 25.3026 15.6627Z" fill="#4B5D63"/>
</g>
</g>
<defs>
<clipPath id="clip0_109_4252">
<rect width="40" height="40" fill="white" transform="translate(0 0.964844)"/>
</clipPath>
</defs>
</svg>
