<svg width="57" height="57" viewBox="0 0 57 57" fill="none" xmlns="http://www.w3.org/2000/svg">
<path d="M0 9.99999C0 4.47715 4.47715 0 10 0H26.8235V16.8235C26.8235 22.3464 22.3464 26.8235 16.8235 26.8235H0V9.99999Z" fill="#1E57FF"/>
<path d="M30.1758 40.1758C30.1758 34.6529 34.6529 30.1758 40.1758 30.1758H56.9993V46.9993C56.9993 52.5222 52.5222 56.9993 46.9993 56.9993H30.1758V40.1758Z" fill="#FD6036"/>
<path d="M30.1758 0H46.9993C52.5222 0 56.9993 4.47715 56.9993 10V26.8235H40.1758C34.6529 26.8235 30.1758 22.3464 30.1758 16.8235V0Z" fill="#00C2FF"/>
<path d="M0 30.1758H16.8235C22.3464 30.1758 26.8235 34.6529 26.8235 40.1758V56.9993H9.99999C4.47715 56.9993 0 52.5222 0 46.9993V30.1758Z" fill="#1E57FF"/>
</svg>
