<svg width="40" height="41" viewBox="0 0 40 41" fill="none" xmlns="http://www.w3.org/2000/svg">
<g clip-path="url(#clip0_109_4275)">
<path d="M32 0.964844H8C3.58172 0.964844 0 4.54657 0 8.96484V32.9648C0 37.3831 3.58172 40.9648 8 40.9648H32C36.4183 40.9648 40 37.3831 40 32.9648V8.96484C40 4.54657 36.4183 0.964844 32 0.964844Z" fill="#E2E5E6"/>
<mask id="mask0_109_4275" style="mask-type:luminance" maskUnits="userSpaceOnUse" x="10" y="10" width="20" height="21">
<path d="M10 10.9648H30V30.9648H10V10.9648Z" fill="white"/>
</mask>
<g mask="url(#mask0_109_4275)">
<path fill-rule="evenodd" clip-rule="evenodd" d="M19.168 27.6322C19.168 28.0924 19.5411 28.4655 20.0013 28.4655H27.5013C27.9615 28.4655 28.3346 28.0924 28.3346 27.6322C28.3346 27.1719 27.9615 26.7988 27.5013 26.7988H20.0013C19.5411 26.7988 19.168 27.1719 19.168 27.6322Z" fill="#4B5D63"/>
<path d="M23.1627 13.2922C23.6707 12.7847 24.2837 12.5311 25.0017 12.5313C25.7198 12.5314 26.3326 12.7854 26.8403 13.2931C27.348 13.8008 27.602 14.4137 27.6022 15.1317C27.6024 15.8497 27.3487 16.4627 26.8412 16.9707L16.4243 27.3877C16.3155 27.4965 16.1864 27.5695 16.0371 27.6069L12.7038 28.4402C12.6507 28.4534 12.5968 28.4614 12.5422 28.4641C12.4875 28.4667 12.4332 28.4641 12.379 28.456C12.3249 28.4479 12.2721 28.4347 12.2206 28.4162C12.1691 28.3978 12.1199 28.3745 12.0729 28.3463C12.026 28.3181 11.9823 28.2857 11.9418 28.249C11.9012 28.2122 11.8647 28.1718 11.8321 28.1279C11.7995 28.0839 11.7716 28.0372 11.7482 27.9877C11.7248 27.9382 11.7065 27.8869 11.6932 27.8339C11.6595 27.6992 11.6595 27.5644 11.6932 27.4296L12.5266 24.0963C12.5639 23.947 12.637 23.818 12.7458 23.7092L23.1627 13.2922ZM24.341 14.471L13.9243 24.8877L13.335 24.2984L14.1435 24.5005L13.3101 27.8339L12.5017 27.6318L12.2996 26.8233L15.6329 25.99L15.835 26.7984L15.2458 26.2092L25.6622 15.7928C25.8445 15.6103 25.9356 15.3901 25.9355 15.1321C25.9354 14.8742 25.8442 14.654 25.6618 14.4716C25.4794 14.2892 25.2592 14.198 25.0013 14.1979C24.7434 14.1979 24.5235 14.2887 24.341 14.471Z" fill="#4B5D63"/>
</g>
</g>
<defs>
<clipPath id="clip0_109_4275">
<rect width="40" height="40" fill="white" transform="translate(0 0.964844)"/>
</clipPath>
</defs>
</svg>
