<svg width="65" height="65" viewBox="0 0 65 65" fill="none" xmlns="http://www.w3.org/2000/svg">
<g clip-path="url(#clip0_109_4059)">
<mask id="mask0_109_4059" style="mask-type:luminance" maskUnits="userSpaceOnUse" x="0" y="0" width="65" height="65">
<path d="M0.75 0.964844H64.75V64.9648H0.75V0.964844Z" fill="white"/>
</mask>
<g mask="url(#mask0_109_4059)">
<mask id="mask1_109_4059" style="mask-type:luminance" maskUnits="userSpaceOnUse" x="0" y="0" width="65" height="65">
<path d="M0.75 0.964844H64.75V64.9648H0.75V0.964844Z" fill="white"/>
</mask>
<g mask="url(#mask1_109_4059)">
<path fill-rule="evenodd" clip-rule="evenodd" d="M50.25 44.9395H40.75C39.6454 44.9395 38.75 45.8349 38.75 46.9395C38.75 48.0441 39.6454 48.9395 40.75 48.9395H50.25C52.1786 48.9395 53.9881 48.6857 55.6786 48.1783C57.443 47.6486 58.9855 46.87 60.3062 45.8426C61.7173 44.7447 62.8021 43.4202 63.5604 41.869C64.3535 40.2468 64.75 38.4537 64.75 36.4895C64.75 34.5221 64.294 32.7121 63.3819 31.0595C62.5669 29.5827 61.4257 28.2993 59.9582 27.2093C58.6611 26.2458 57.1842 25.4867 55.5275 24.932C54.533 24.599 53.5298 24.3573 52.5177 24.2069C52.1432 21.9917 51.4869 19.9241 50.5489 18.0041C49.4227 15.6989 47.9414 13.7064 46.1051 12.0266C44.3044 10.3793 42.2585 9.1195 39.9676 8.24707C37.6785 7.37533 35.2726 6.93945 32.75 6.93945C30.4455 6.93945 28.2616 7.30551 26.1984 8.03763C24.289 8.71521 22.5409 9.68429 20.9541 10.9449C19.4862 12.111 18.2193 13.4746 17.1533 15.0357C16.3967 16.1437 15.775 17.3003 15.2881 18.5054C13.6682 18.7523 12.1227 19.1718 10.6517 19.7639C8.73373 20.5357 7.05479 21.5564 5.6149 22.8258C4.08032 24.1786 2.89879 25.7431 2.07032 27.5191C1.19011 29.406 0.75 31.4461 0.75 33.6395C0.75 35.8507 1.20836 37.927 2.12507 39.8685C3.00158 41.7248 4.24289 43.3465 5.84897 44.7337C7.41111 46.0829 9.21374 47.12 11.2569 47.8452C13.3125 48.5747 15.4769 48.9395 17.75 48.9395H24.75C25.8546 48.9395 26.75 48.0441 26.75 46.9395C26.75 45.8349 25.8546 44.9395 24.75 44.9395H17.75C15.9361 44.9395 14.2176 44.6515 12.5947 44.0755C11.0236 43.5179 9.64658 42.7283 8.46353 41.7065C7.28472 40.6883 6.37758 39.5064 5.74212 38.1606C5.08071 36.7598 4.75 35.2528 4.75 33.6395C4.75 32.0375 5.0651 30.5611 5.69531 29.2101C6.28834 27.9388 7.14327 26.8109 8.2601 25.8263C9.3567 24.8595 10.6517 24.0756 12.1452 23.4746C13.6383 22.8736 15.2363 22.4923 16.9391 22.3305C17.036 22.3213 17.1318 22.3051 17.2263 22.282C17.3208 22.2588 17.4131 22.2288 17.5033 22.1922C17.5934 22.1555 17.6804 22.1125 17.7643 22.0632C17.8482 22.0138 17.928 21.9586 18.0039 21.8976C18.0797 21.8366 18.1507 21.7704 18.2168 21.699C18.283 21.6276 18.3436 21.5518 18.3987 21.4716C18.4538 21.3914 18.5028 21.3076 18.5456 21.2202C18.5885 21.1328 18.6248 21.0428 18.6545 20.9501C19.0654 19.6686 19.6661 18.449 20.4566 17.2914C21.2951 16.0635 22.2903 14.992 23.4422 14.0769C24.6809 13.0928 26.0456 12.3363 27.5361 11.8073C29.1666 11.2287 30.9045 10.9395 32.75 10.9395C34.782 10.9395 36.7134 11.288 38.5441 11.9852C40.3595 12.6766 41.9799 13.6741 43.4052 14.978C44.8678 16.3159 46.051 17.9099 46.9549 19.76C47.9115 21.718 48.5135 23.8804 48.7608 26.2474C48.767 26.3061 48.7757 26.3645 48.787 26.4225C48.7983 26.4805 48.8122 26.5379 48.8286 26.5947C48.845 26.6514 48.8639 26.7073 48.8852 26.7625C48.9066 26.8175 48.9304 26.8716 48.9565 26.9246C48.9826 26.9776 49.0111 27.0293 49.0418 27.0798C49.0725 27.1302 49.1054 27.1792 49.1405 27.2268C49.1756 27.2743 49.2127 27.3202 49.2519 27.3645C49.291 27.4087 49.332 27.4512 49.3749 27.4918C49.4178 27.5324 49.4625 27.5711 49.5088 27.6078C49.5551 27.6444 49.603 27.679 49.6524 27.7114C49.7018 27.7438 49.7525 27.7739 49.8046 27.8019C49.8567 27.8298 49.9099 27.8554 49.9642 27.8787C50.0185 27.9019 50.0738 27.9226 50.13 27.941C50.1861 27.9592 50.243 27.975 50.3006 27.9884C50.3582 28.0016 50.4162 28.0123 50.4747 28.0205C50.5332 28.0286 50.592 28.0341 50.6511 28.0371C51.865 28.0972 53.0672 28.3265 54.2576 28.7251C55.5117 29.1449 56.6168 29.71 57.573 30.4203C58.5756 31.1651 59.3445 32.0224 59.8798 32.9923C60.4599 34.0434 60.75 35.2091 60.75 36.4895C60.75 37.8367 60.489 39.0442 59.9669 40.1121C59.4796 41.1088 58.7739 41.9666 57.85 42.6855C56.9227 43.4069 55.8156 43.9608 54.5285 44.3472C53.2132 44.742 51.787 44.9395 50.25 44.9395Z" fill="#00C2FF"/>
<path fill-rule="evenodd" clip-rule="evenodd" d="M39.3358 34.3537L34.75 29.7679V56.992C34.75 58.0966 33.8546 58.992 32.75 58.992C31.6454 58.992 30.75 58.0966 30.75 56.992V29.7679L26.1642 34.3537C25.3832 35.1348 24.1168 35.1348 23.3358 34.3537C22.5547 33.5726 22.5547 32.3063 23.3358 31.5252L31.3358 23.5252C31.4286 23.4324 31.5297 23.3495 31.6389 23.2765C31.748 23.2036 31.8633 23.1419 31.9846 23.0917C32.106 23.0414 32.231 23.0035 32.3598 22.9779C32.4886 22.9523 32.6187 22.9395 32.75 22.9395C32.8813 22.9395 33.0114 22.9523 33.1402 22.9779C33.269 23.0035 33.394 23.0414 33.5154 23.0917C33.6367 23.1419 33.752 23.2036 33.8611 23.2765C33.9703 23.3495 34.0714 23.4324 34.1642 23.5252L42.1642 31.5252C42.9453 32.3063 42.9453 33.5726 42.1642 34.3537C41.3832 35.1348 40.1168 35.1348 39.3358 34.3537Z" fill="#00C2FF"/>
</g>
</g>
</g>
<defs>
<clipPath id="clip0_109_4059">
<rect width="64" height="64" fill="white" transform="translate(0.75 0.964844)"/>
</clipPath>
</defs>
</svg>
