<svg width="81" height="81" viewBox="0 0 81 81" fill="none" xmlns="http://www.w3.org/2000/svg">
<g clip-path="url(#clip0_164_58)">
<path d="M40.375 0.964844C18.2836 0.964844 0.375 18.8735 0.375 40.9648V41.0248C0.375 63.1162 18.2236 80.9648 40.315 80.9648H40.375C62.4664 80.9648 80.375 63.1162 80.375 41.0248V40.9648C80.375 18.8735 62.5264 0.964844 40.435 0.964844H40.375Z" fill="#F0F1F4"/>
<mask id="mask0_164_58" style="mask-type:luminance" maskUnits="userSpaceOnUse" x="20" y="20" width="41" height="41">
<path d="M20.375 20.9648H60.375V60.9648H20.375V20.9648Z" fill="white"/>
</mask>
<g mask="url(#mask0_164_58)">
<mask id="mask1_164_58" style="mask-type:luminance" maskUnits="userSpaceOnUse" x="20" y="20" width="41" height="41">
<path d="M20.375 20.9648H60.375V60.9648H20.375V20.9648Z" fill="white"/>
</mask>
<g mask="url(#mask1_164_58)">
<path fill-rule="evenodd" clip-rule="evenodd" d="M40.3763 43.3225L45.8645 48.8107C46.5154 49.4615 47.5706 49.4615 48.2215 48.8107C48.8724 48.1598 48.8724 47.1045 48.2215 46.4536L41.5548 39.787C41.5162 39.7484 41.4758 39.7118 41.4336 39.6771C41.3914 39.6425 41.3476 39.61 41.3022 39.5797C41.2569 39.5494 41.2101 39.5214 41.162 39.4956C41.1138 39.4699 41.0645 39.4466 41.0141 39.4257C40.9637 39.4048 40.9123 39.3864 40.8601 39.3706C40.8079 39.3547 40.755 39.3415 40.7014 39.3309C40.6479 39.3202 40.594 39.3122 40.5397 39.3069C40.4853 39.3015 40.4309 39.2988 40.3763 39.2988C40.3217 39.2988 40.2673 39.3015 40.2129 39.3069C40.1586 39.3122 40.1047 39.3202 40.0511 39.3309C39.9976 39.3415 39.9447 39.3547 39.8925 39.3706C39.8403 39.3864 39.7889 39.4048 39.7385 39.4257C39.6881 39.4466 39.6388 39.4699 39.5906 39.4956C39.5425 39.5214 39.4957 39.5494 39.4503 39.5797C39.405 39.61 39.3612 39.6425 39.319 39.6771C39.2768 39.7118 39.2364 39.7484 39.1978 39.787L32.5311 46.4536C31.8803 47.1045 31.8803 48.1598 32.5311 48.8107C33.182 49.4615 34.2373 49.4615 34.8881 48.8107L40.3763 43.3225Z" fill="#5F7075"/>
<path fill-rule="evenodd" clip-rule="evenodd" d="M40.3776 39.2988C39.4571 39.2988 38.7109 40.045 38.7109 40.9655V55.9655C38.7109 56.886 39.4571 57.6321 40.3776 57.6321C41.2981 57.6321 42.0443 56.886 42.0443 55.9655V40.9655C42.0443 40.045 41.2981 39.2988 40.3776 39.2988Z" fill="#5F7075"/>
<path fill-rule="evenodd" clip-rule="evenodd" d="M56.4815 46.9627C55.8726 48.3592 54.8993 49.4221 53.5618 50.1512C52.7535 50.5918 52.4555 51.6042 52.8961 52.4123C53.3368 53.2206 54.3491 53.5185 55.1573 53.078C57.1637 51.9841 58.6236 50.3899 59.537 48.2952C60.4504 46.2006 60.6253 44.0459 60.0616 41.8313C59.498 39.6168 58.3143 37.8079 56.5106 36.4048C54.7069 35.0017 52.6624 34.2994 50.3773 34.2979H49.5169C48.9016 32.4907 48.0136 30.9043 46.8526 29.5386C45.4312 27.8665 43.6174 26.5449 41.4113 25.5736C39.205 24.6023 37.0053 24.157 34.8123 24.2378C32.6192 24.3186 30.4582 24.9245 28.3295 26.0555C26.2007 27.1866 24.4891 28.6381 23.1946 30.4102C21.9001 32.1824 21.0379 34.2544 20.6078 36.6263C20.1778 38.9982 20.2579 41.241 20.8479 43.3548C21.4379 45.4686 22.531 47.4286 24.1273 49.235C24.7368 49.9246 25.7901 49.9897 26.4798 49.3801C27.1695 48.7706 27.2346 47.7173 26.625 47.0276C25.3668 45.6038 24.5112 44.0808 24.0585 42.4586C23.6057 40.8365 23.5488 39.0906 23.8877 37.2209C24.2267 35.3512 24.8929 33.7364 25.8863 32.3764C26.8797 31.0165 28.2154 29.8907 29.8934 28.9992C31.5715 28.1077 33.252 27.6309 34.935 27.5689C36.618 27.5069 38.3291 27.8587 40.0681 28.6243C41.8072 29.39 43.2221 30.4144 44.3129 31.6975C45.4037 32.9807 46.1869 34.5421 46.6625 36.3818C46.6855 36.4706 46.7156 36.5569 46.7528 36.6407C46.79 36.7246 46.8338 36.8048 46.8843 36.8814C46.9348 36.958 46.9912 37.0299 47.0535 37.0972C47.1158 37.1645 47.1833 37.2262 47.2558 37.2824C47.3283 37.3385 47.4049 37.3884 47.4856 37.4319C47.5664 37.4754 47.6502 37.512 47.737 37.5416C47.8238 37.5713 47.9124 37.5937 48.0029 37.6087C48.0934 37.6237 48.1845 37.6313 48.2761 37.6313H50.375C51.8985 37.6323 53.2615 38.1005 54.464 39.0358C55.6664 39.9713 56.4556 41.1771 56.8314 42.6535C57.2071 44.1299 57.0905 45.5663 56.4815 46.9627Z" fill="#5F7075"/>
<path fill-rule="evenodd" clip-rule="evenodd" d="M40.3763 43.3225L45.8645 48.8107C46.5154 49.4615 47.5706 49.4615 48.2215 48.8107C48.8724 48.1598 48.8724 47.1045 48.2215 46.4536L41.5548 39.787C41.5162 39.7484 41.4758 39.7118 41.4336 39.6771C41.3914 39.6425 41.3476 39.61 41.3022 39.5797C41.2569 39.5494 41.2101 39.5214 41.162 39.4956C41.1138 39.4699 41.0645 39.4466 41.0141 39.4257C40.9637 39.4048 40.9123 39.3864 40.8601 39.3706C40.8079 39.3547 40.755 39.3415 40.7014 39.3309C40.6479 39.3202 40.594 39.3122 40.5397 39.3069C40.4853 39.3015 40.4309 39.2988 40.3763 39.2988C40.3217 39.2988 40.2673 39.3015 40.2129 39.3069C40.1586 39.3122 40.1047 39.3202 40.0511 39.3309C39.9976 39.3415 39.9447 39.3547 39.8925 39.3706C39.8403 39.3864 39.7889 39.4048 39.7385 39.4257C39.6881 39.4466 39.6388 39.4699 39.5906 39.4956C39.5425 39.5214 39.4957 39.5494 39.4503 39.5797C39.405 39.61 39.3612 39.6425 39.319 39.6771C39.2768 39.7118 39.2364 39.7484 39.1978 39.787L32.5311 46.4536C31.8803 47.1045 31.8803 48.1598 32.5311 48.8107C33.182 49.4615 34.2373 49.4615 34.8881 48.8107L40.3763 43.3225Z" fill="#5F7075"/>
</g>
</g>
</g>
<defs>
<clipPath id="clip0_164_58">
<rect width="80" height="80" fill="white" transform="translate(0.375 0.964844)"/>
</clipPath>
</defs>
</svg>
