<svg width="40" height="41" viewBox="0 0 40 41" fill="none" xmlns="http://www.w3.org/2000/svg">
<g clip-path="url(#clip0_109_4224)">
<path d="M32 0.964844H8C3.58172 0.964844 0 4.54657 0 8.96484V32.9648C0 37.3831 3.58172 40.9648 8 40.9648H32C36.4183 40.9648 40 37.3831 40 32.9648V8.96484C40 4.54657 36.4183 0.964844 32 0.964844Z" fill="#E2E5E6"/>
<mask id="mask0_109_4224" style="mask-type:luminance" maskUnits="userSpaceOnUse" x="10" y="10" width="20" height="21">
<path d="M10 10.9648H30V30.9648H10V10.9648Z" fill="white"/>
</mask>
<g mask="url(#mask0_109_4224)">
<path d="M25.8333 13.4648H14.1667C13.2462 13.4648 12.5 14.211 12.5 15.1315V26.7982C12.5 27.7187 13.2462 28.4648 14.1667 28.4648H25.8333C26.7538 28.4648 27.5 27.7187 27.5 26.7982V15.1315C27.5 14.211 26.7538 13.4648 25.8333 13.4648Z" stroke="#5F7075" stroke-width="1.66667" stroke-linejoin="round"/>
<path fill-rule="evenodd" clip-rule="evenodd" d="M15.8333 12.6309C15.3731 12.6309 15 13.004 15 13.4642V28.4642C15 28.9244 15.3731 29.2975 15.8333 29.2975C16.2936 29.2975 16.6667 28.9244 16.6667 28.4642V13.4642C16.6667 13.004 16.2936 12.6309 15.8333 12.6309Z" fill="#5F7075"/>
<path fill-rule="evenodd" clip-rule="evenodd" d="M11.668 17.2142C11.668 17.6744 12.0411 18.0475 12.5013 18.0475H15.8346C16.2949 18.0475 16.668 17.6744 16.668 17.2142C16.668 16.754 16.2949 16.3809 15.8346 16.3809H12.5013C12.0411 16.3809 11.668 16.754 11.668 17.2142Z" fill="#5F7075"/>
<path fill-rule="evenodd" clip-rule="evenodd" d="M11.668 20.9642C11.668 21.4244 12.0411 21.7975 12.5013 21.7975H27.5013C27.9615 21.7975 28.3346 21.4244 28.3346 20.9642C28.3346 20.504 27.9615 20.1309 27.5013 20.1309H12.5013C12.0411 20.1309 11.668 20.504 11.668 20.9642Z" fill="#5F7075"/>
<path fill-rule="evenodd" clip-rule="evenodd" d="M11.668 24.7142C11.668 25.1744 12.0411 25.5475 12.5013 25.5475H15.8346C16.2949 25.5475 16.668 25.1744 16.668 24.7142C16.668 24.254 16.2949 23.8809 15.8346 23.8809H12.5013C12.0411 23.8809 11.668 24.254 11.668 24.7142Z" fill="#5F7075"/>
<path fill-rule="evenodd" clip-rule="evenodd" d="M24.1693 12.6309C23.709 12.6309 23.3359 13.004 23.3359 13.4642V28.4642C23.3359 28.9244 23.709 29.2975 24.1693 29.2975C24.6295 29.2975 25.0026 28.9244 25.0026 28.4642V13.4642C25.0026 13.004 24.6295 12.6309 24.1693 12.6309Z" fill="#5F7075"/>
<path fill-rule="evenodd" clip-rule="evenodd" d="M23.3359 17.2142C23.3359 17.6744 23.709 18.0475 24.1693 18.0475H27.5026C27.9628 18.0475 28.3359 17.6744 28.3359 17.2142C28.3359 16.754 27.9628 16.3809 27.5026 16.3809H24.1693C23.709 16.3809 23.3359 16.754 23.3359 17.2142Z" fill="#5F7075"/>
<path fill-rule="evenodd" clip-rule="evenodd" d="M23.3359 24.7142C23.3359 25.1744 23.709 25.5475 24.1693 25.5475H27.5026C27.9628 25.5475 28.3359 25.1744 28.3359 24.7142C28.3359 24.254 27.9628 23.8809 27.5026 23.8809H24.1693C23.709 23.8809 23.3359 24.254 23.3359 24.7142Z" fill="#5F7075"/>
</g>
</g>
<defs>
<clipPath id="clip0_109_4224">
<rect width="40" height="40" fill="white" transform="translate(0 0.964844)"/>
</clipPath>
</defs>
</svg>
