<svg width="21" height="18" viewBox="0 0 21 18" fill="none" xmlns="http://www.w3.org/2000/svg">
<g clip-path="url(#clip0_109_4105)">
<mask id="mask0_109_4105" style="mask-type:luminance" maskUnits="userSpaceOnUse" x="0" y="0" width="21" height="18">
<path d="M0.25 0.0761719H20.25V17.854H0.25V0.0761719Z" fill="white"/>
</mask>
<g mask="url(#mask0_109_4105)">
<mask id="mask1_109_4105" style="mask-type:luminance" maskUnits="userSpaceOnUse" x="0" y="0" width="21" height="18">
<path d="M0.25 0.0761719H20.25V17.854H0.25V0.0761719Z" fill="white"/>
</mask>
<g mask="url(#mask1_109_4105)">
<path d="M19.3362 4.89347C19.1181 4.16354 18.4756 3.58866 17.6597 3.39357C16.1809 3.03906 10.251 3.03906 10.251 3.03906C10.251 3.03906 4.32116 3.03906 2.84231 3.39357C2.02644 3.58869 1.38387 4.16354 1.16578 4.89347C0.769531 6.21653 0.769531 8.97696 0.769531 8.97696C0.769531 8.97696 0.769531 11.7374 1.16578 13.0605C1.38387 13.7904 2.02644 14.3414 2.84231 14.5364C4.32116 14.891 10.251 14.891 10.251 14.891C10.251 14.891 16.1809 14.891 17.6597 14.5364C18.4756 14.3414 19.1181 13.7904 19.3362 13.0605C19.7325 11.7374 19.7325 8.97696 19.7325 8.97696C19.7325 8.97696 19.7325 6.21653 19.3362 4.89347ZM8.31161 11.4832V6.4707L13.2678 8.97702L8.31161 11.4832Z" fill="#5F7075"/>
</g>
</g>
</g>
<defs>
<clipPath id="clip0_109_4105">
<rect width="20" height="17.7778" fill="white" transform="translate(0.25 0.0761719)"/>
</clipPath>
</defs>
</svg>
